<?xml version="1.0" encoding="utf-8" standalone="no"?>
<!DOCTYPE svg PUBLIC "-//W3C//DTD SVG 1.1//EN"
  "http://www.w3.org/Graphics/SVG/1.1/DTD/svg11.dtd">
<svg xmlns:xlink="http://www.w3.org/1999/xlink" width="302.4pt" height="288pt" viewBox="0 0 302.4 288" xmlns="http://www.w3.org/2000/svg" version="1.1">
 <metadata>
  <rdf:RDF xmlns:dc="http://purl.org/dc/elements/1.1/" xmlns:cc="http://creativecommons.org/ns#" xmlns:rdf="http://www.w3.org/1999/02/22-rdf-syntax-ns#">
   <cc:Work>
    <dc:type rdf:resource="http://purl.org/dc/dcmitype/StillImage"/>
    <dc:date>2026-10-07T15:56:24.999033</dc:date>
    <dc:format>image/svg+xml</dc:format>
    <dc:creator>
     <cc:Agent>
      <dc:title>Matplotlib v3.10.9, https://matplotlib.org/</dc:title>
     </cc:Agent>
    </dc:creator>
   </cc:Work>
  </rdf:RDF>
 </metadata>
 <defs>
  <style type="text/css">*{stroke-linejoin: round; stroke-linecap: butt}</style>
 </defs>
 <g id="figure_1">
  <g id="patch_1">
   <path d="M 0 288 
L 302.4 288 
L 302.4 0 
L 0 0 
z
" style="fill: #ffffff"/>
  </g>
  <g id="axes_1">
   <g id="patch_2">
    <path d="M 10.8 252 
L 291.6 252 
L 291.6 36 
L 10.8 36 
z
" style="fill: #ffffff"/>
   </g>
   <g id="line2d_1">
    <path d="M 10.8 144 
L 291.6 144 
" clip-path="url(#p80a1dc94ed)" style="fill: none; stroke: #e0e0e0; stroke-width: 0.8; stroke-linecap: square"/>
   </g>
   <g id="line2d_2">
    <path d="M 140.4 252 
L 140.4 36 
" clip-path="url(#p80a1dc94ed)" style="fill: none; stroke: #e0e0e0; stroke-width: 0.8; stroke-linecap: square"/>
   </g>
   <g id="line2d_3">
    <path d="M 48.758961 52.358961 
L 232.041039 235.641039 
" clip-path="url(#p80a1dc94ed)" style="fill: none; stroke: #d9d9d9; stroke-width: 0.9; stroke-linecap: square"/>
   </g>
   <g id="line2d_4">
    <path d="M 48.758961 235.641039 
L 232.041039 52.358961 
" clip-path="url(#p80a1dc94ed)" style="fill: none; stroke: #d9d9d9; stroke-width: 0.9; stroke-linecap: square"/>
   </g>
   <g id="matplotlib.axis_1"/>
   <g id="matplotlib.axis_2"/>
   <g id="line2d_5">
    <path d="M 194.4 198 
L 248.4 144 
" clip-path="url(#p80a1dc94ed)" style="fill: none; stroke-dasharray: 3.33,1.44; stroke-dashoffset: 0; stroke: #808080; stroke-width: 0.9"/>
   </g>
   <g id="line2d_6">
    <path d="M 194.4 90 
L 248.4 144 
" clip-path="url(#p80a1dc94ed)" style="fill: none; stroke-dasharray: 3.33,1.44; stroke-dashoffset: 0; stroke: #808080; stroke-width: 0.9"/>
   </g>
   <g id="patch_3">
    <path d="M 10.8 252 
L 10.8 36 
" style="fill: none; stroke: #000000; stroke-width: 0.8; stroke-linejoin: miter; stroke-linecap: square"/>
   </g>
   <g id="patch_4">
    <path d="M 291.6 252 
L 291.6 36 
" style="fill: none; stroke: #000000; stroke-width: 0.8; stroke-linejoin: miter; stroke-linecap: square"/>
   </g>
   <g id="patch_5">
    <path d="M 10.8 252 
L 291.6 252 
" style="fill: none; stroke: #000000; stroke-width: 0.8; stroke-linejoin: miter; stroke-linecap: square"/>
   </g>
   <g id="patch_6">
    <path d="M 10.8 36 
L 291.6 36 
" style="fill: none; stroke: #000000; stroke-width: 0.8; stroke-linejoin: miter; stroke-linecap: square"/>
   </g>
   <g id="text_1">
    <!-- $q_1$ -->
    <g style="fill: #737373" transform="translate(75.110162 87.828131) scale(0.11 -0.11)">
     <defs>
      <path id="DejaVuSans-Oblique-71" d="M 2669 525 
Q 2438 222 2123 65 
Q 1809 -91 1428 -91 
Q 897 -91 595 267 
Q 294 625 294 1253 
Q 294 1759 480 2231 
Q 666 2703 1013 3078 
Q 1238 3322 1530 3453 
Q 1822 3584 2144 3584 
Q 2531 3584 2781 3431 
Q 3031 3278 3144 2969 
L 3244 3494 
L 3822 3494 
L 2888 -1319 
L 2309 -1319 
L 2669 525 
z
M 891 1338 
Q 891 875 1084 633 
Q 1278 391 1644 391 
Q 2188 391 2572 911 
Q 2956 1431 2956 2175 
Q 2956 2625 2757 2864 
Q 2559 3103 2188 3103 
Q 1916 3103 1684 2976 
Q 1453 2850 1281 2606 
Q 1100 2350 995 2006 
Q 891 1663 891 1338 
z
" transform="scale(0.015625)"/>
      <path id="DejaVuSans-31" d="M 794 531 
L 1825 531 
L 1825 4091 
L 703 3866 
L 703 4441 
L 1819 4666 
L 2450 4666 
L 2450 531 
L 3481 531 
L 3481 0 
L 794 0 
L 794 531 
z
" transform="scale(0.015625)"/>
     </defs>
     <use xlink:href="#DejaVuSans-Oblique-71"/>
     <use xlink:href="#DejaVuSans-31" transform="translate(63.476562 -16.40625) scale(0.7)"/>
    </g>
   </g>
   <g id="text_2">
    <!-- $q_2$ -->
    <g style="fill: #737373" transform="translate(75.110162 206.197806) scale(0.11 -0.11)">
     <defs>
      <path id="DejaVuSans-32" d="M 1228 531 
L 3431 531 
L 3431 0 
L 469 0 
L 469 531 
Q 828 903 1448 1529 
Q 2069 2156 2228 2338 
Q 2531 2678 2651 2914 
Q 2772 3150 2772 3378 
Q 2772 3750 2511 3984 
Q 2250 4219 1831 4219 
Q 1534 4219 1204 4116 
Q 875 4013 500 3803 
L 500 4441 
Q 881 4594 1212 4672 
Q 1544 4750 1819 4750 
Q 2544 4750 2975 4387 
Q 3406 4025 3406 3419 
Q 3406 3131 3298 2873 
Q 3191 2616 2906 2266 
Q 2828 2175 2409 1742 
Q 1991 1309 1228 531 
z
" transform="scale(0.015625)"/>
     </defs>
     <use xlink:href="#DejaVuSans-Oblique-71"/>
     <use xlink:href="#DejaVuSans-32" transform="translate(63.476562 -16.40625) scale(0.7)"/>
    </g>
   </g>
   <g id="patch_7">
    <path d="M 141.81394 145.41394 
Q 167.399254 170.999254 191.561542 195.161542 
" style="fill: none; stroke: #1f77b4; stroke-width: 1.8; stroke-linecap: round"/>
    <path d="M 190.147329 190.918901 
L 191.561542 195.161542 
L 187.318901 193.747329 
z
" style="fill: #1f77b4; stroke: #1f77b4; stroke-width: 1.8; stroke-linecap: round"/>
   </g>
   <g id="text_3">
    <!-- $c_1q_1$ -->
    <g style="fill: #1f77b4" transform="translate(189.705 208.032969) scale(0.11 -0.11)">
     <defs>
      <path id="DejaVuSans-Oblique-63" d="M 3431 3366 
L 3316 2797 
Q 3109 2947 2876 3022 
Q 2644 3097 2394 3097 
Q 2119 3097 1870 3000 
Q 1622 2903 1453 2725 
Q 1184 2453 1037 2087 
Q 891 1722 891 1331 
Q 891 859 1127 628 
Q 1363 397 1844 397 
Q 2081 397 2348 469 
Q 2616 541 2906 684 
L 2797 116 
Q 2547 13 2283 -39 
Q 2019 -91 1741 -91 
Q 1044 -91 669 257 
Q 294 606 294 1253 
Q 294 1797 489 2255 
Q 684 2713 1069 3078 
Q 1331 3328 1684 3456 
Q 2038 3584 2456 3584 
Q 2700 3584 2940 3529 
Q 3181 3475 3431 3366 
z
" transform="scale(0.015625)"/>
     </defs>
     <use xlink:href="#DejaVuSans-Oblique-63"/>
     <use xlink:href="#DejaVuSans-31" transform="translate(54.980469 -16.40625) scale(0.7)"/>
     <use xlink:href="#DejaVuSans-Oblique-71" transform="translate(102.250977 0)"/>
     <use xlink:href="#DejaVuSans-31" transform="translate(165.727539 -16.40625) scale(0.7)"/>
    </g>
   </g>
   <g id="patch_8">
    <path d="M 141.81394 142.58606 
Q 167.399254 117.000746 191.561542 92.838458 
" style="fill: none; stroke: #2ca02c; stroke-width: 1.8; stroke-linecap: round"/>
    <path d="M 187.318901 94.252671 
L 191.561542 92.838458 
L 190.147329 97.081099 
z
" style="fill: #2ca02c; stroke: #2ca02c; stroke-width: 1.8; stroke-linecap: round"/>
   </g>
   <g id="text_4">
    <!-- $c_2q_2$ -->
    <g style="fill: #2ca02c" transform="translate(189.705 85.992969) scale(0.11 -0.11)">
     <use xlink:href="#DejaVuSans-Oblique-63"/>
     <use xlink:href="#DejaVuSans-32" transform="translate(54.980469 -16.40625) scale(0.7)"/>
     <use xlink:href="#DejaVuSans-Oblique-71" transform="translate(102.250977 0)"/>
     <use xlink:href="#DejaVuSans-32" transform="translate(165.727539 -16.40625) scale(0.7)"/>
    </g>
   </g>
   <g id="patch_9">
    <path d="M 142.40061 144 
Q 194.399121 144 244.38517 144 
" style="fill: none; stroke: #000000; stroke-width: 1.8; stroke-linecap: round"/>
    <path d="M 240.38517 142 
L 244.38517 144 
L 240.38517 146 
z
" style="stroke: #000000; stroke-width: 1.8; stroke-linecap: round"/>
   </g>
   <g id="text_5">
    <!-- $v$ -->
    <g transform="translate(259.14 147.035313) scale(0.11 -0.11)">
     <defs>
      <path id="DejaVuSans-Oblique-76" d="M 459 3500 
L 1069 3500 
L 1581 525 
L 3256 3500 
L 3866 3500 
L 1875 0 
L 1100 0 
L 459 3500 
z
" transform="scale(0.015625)"/>
     </defs>
     <use xlink:href="#DejaVuSans-Oblique-76" transform="translate(0 0.3125)"/>
    </g>
   </g>
  </g>
 </g>
 <defs>
  <clipPath id="p80a1dc94ed">
   <rect x="10.8" y="36" width="280.8" height="216"/>
  </clipPath>
 </defs>
</svg>
